<svg xmlns="http://www.w3.org/2000/svg" width="430" height="430" style="width:100%;height:100%;transform:translate3d(0,0,0);content-visibility:visible" viewBox="0 0 430 430"><defs><clipPath id="a"><path d="M0 0h430v430H0z"/></clipPath><clipPath id="d"><path d="M0 0h430v430H0z"/></clipPath><clipPath id="c"><path d="M0 0h430v430H0z"/></clipPath><clipPath id="b"><path d="M0 0h430v430H0z"/></clipPath></defs><g clip-path="url(#a)"><g clip-path="url(#b)" style="display:none"><path fill="none" class="primary" style="display:none"/><path fill="none" class="primary" style="display:none"/><path fill="none" class="primary" style="display:none"/><path fill="none" class="primary" style="display:none"/><path fill="none" class="primary" style="display:none"/><g style="display:none"><path class="secondary"/><path class="secondary" style="mix-blend-mode:multiply"/><path class="secondary" style="mix-blend-mode:multiply"/><path class="secondary" style="mix-blend-mode:multiply"/><path class="secondary" style="mix-blend-mode:multiply"/><path class="secondary" style="mix-blend-mode:multiply"/></g><path fill="none" class="primary" style="display:none"/></g><g clip-path="url(#c)" style="display:block"><path fill="none" stroke="#121331" stroke-linecap="round" stroke-linejoin="round" stroke-width="7" d="M375.2 128.4c-2.2-18-10.3-35.5-24.1-49.3-13.8-13.9-31.3-21.9-49.3-24.1m42.3 80c-1.4-12-6.7-23.7-16-32.9s-20.9-14.5-32.9-16M55 301.8c2.2 18 10.3 35.5 24.1 49.3 13.8 13.9 31.3 21.9 49.3 24.1m-42.3-80c1.4 12 6.7 23.7 16 32.9s20.9 14.5 32.9 16" class="primary" style="display:block"/><path fill="none" class="primary" style="display:none"/><path fill="none" class="primary" style="display:none"/><g fill="#F9C9C0" style="display:block"><path d="M126.758 103.887c-4.09-4.181-6.136-9.706-6.136-15.134 0-5.5 2.1-11.1 6.3-15.3 7.5-7.5 19.8-7.5 27.3 0l40.819 40.819 63.08 63.08-11.2-20.7a36.361 36.361 0 0 1-4.325-19.824c.842-12.461 8.034-24.214 20.026-30.275 2.1-1.1 4.4-1.6 6.6-1.6 5.1 0 9.9 2.7 12.6 7.3l31.6 55.2c15.1 26.5 20 57.5 13.8 87.4l24.877 24.877a3 3 0 0 1-.001 4.244l-88.855 88.76a3 3 0 0 1-4.241-.001l-24.88-24.88s-38.1-.9-67.4-30.3l-41.15-41.15-.048.05-40.551-40.55-23.75-23.75c-4-4-6-9.2-6-14.5 0-5.2 2-10.5 6-14.5 7.96-7.96 20.869-8 28.78-.121l-23.48-23.58c-4.2-4.2-6.3-9.8-6.3-15.3s2.1-11.1 6.3-15.3c7.477-7.474 19.72-7.5 27.228-.072l-12.027-12.026c-4-4-6-9.2-6-14.5 0-5.3 2-10.5 6-14.5 8-8 21-8 29 0l16.034 16.133z" class="secondary"/><path d="M47.736 55.135a8.838 8.838 0 0 0-.011-12.489L-1.378-6.457l-32.636-32.637c-4.2-4.2-6.3-9.8-6.3-15.3 0-1.114.086-2.231.258-3.34a19.13 19.13 0 0 0-3.958 3.04c-4.2 4.2-6.3 9.8-6.3 15.3s2.1 11.101 6.3 15.301l30.011 30.011 49.228 49.228a8.84 8.84 0 0 0 12.511-.011z" class="secondary" opacity=".5" style="mix-blend-mode:multiply" transform="translate(170.938 128.147)"/><path d="M48.99 56.375a8.86 8.86 0 0 0-.013-12.52L9.005 3.909l-44.279-44.248c-4.2-4.2-6.3-9.8-6.3-15.3 0-1.114.086-2.231.258-3.341a19.135 19.135 0 0 0-3.958 3.041c-4.2 4.2-6.3 9.8-6.3 15.3s2.1 11.1 6.3 15.3l42.639 42.638 39.086 39.087a8.858 8.858 0 0 0 12.539-.011z" class="secondary" opacity=".5" style="mix-blend-mode:multiply" transform="translate(111.796 184.79)"/><path d="M55.687 62.529a8.898 8.898 0 0 0-.041-12.645l-10.05-9.886L8.083 2.485l-50.387-50.387c-4-3.999-6-9.199-6-14.499 0-.912.059-1.822.178-2.723a20.5 20.5 0 0 0-4.178 3.223c-4 4-6 9.2-6 14.499 0 5.3 2 10.5 6 14.5l47.387 47.387 48.033 48.033a8.897 8.897 0 0 0 12.571.011z" class="secondary" opacity=".5" style="mix-blend-mode:multiply" transform="translate(134.028 149.655)"/><path d="M-99.086-96.842a20.518 20.518 0 0 0-10.183 17.726c0 5.3 2 10.5 6 14.5l23.875 23.875L-38.969-.316l.05-.05 41.15 41.15c29.3 29.4 67.4 30.3 67.4 30.3l24.88 24.88a3 3 0 0 0 4.241.001l10.517-10.505-29.638-29.376s-38.1-.9-67.4-30.3l-41.15-41.15-.05.05-38.112-38.112-26.188-26.188c-4-4-6-9.2-6-14.5 0-.908.061-1.819.183-2.726z" class="secondary" opacity=".5" style="mix-blend-mode:multiply" transform="translate(164.49 276.769)"/><path d="m10.445 2.762-.556-1.028c-7.486-13.827-5.11-30.338 4.632-41.509a14.36 14.36 0 0 0-2.332-.19c-2.2 0-4.5.5-6.6 1.6-18.4 9.3-25.5 32.001-15.7 50.101l11.2 20.7 2.471 7.529 1.713-1.714a30 30 0 0 0 5.172-35.489z" class="secondary" opacity=".5" style="mix-blend-mode:multiply" transform="translate(257.035 144.917)"/></g><path fill="none" stroke="#121331" stroke-linecap="round" stroke-linejoin="round" stroke-width="7" d="M27.259-138.222c0-5.94 2.475-11.385 6.364-15.274 3.889-3.889 9.333-6.364 15.273-6.364 10.607 0 19.304 8.697 19.304 19.304V6.381M27.259-17.307v-120.915l.071-22.981c0-11.314-9.192-20.506-20.506-20.506-5.657 0-10.748 2.262-14.496 6.01-3.748 3.748-6.011 8.839-6.011 14.496l.001 17.112M-54.624-17.307v-19.516s-.024-29.244-.038-43.865c-.009-9.208-.033-27.624-.033-27.624.071-11.243-9.121-20.435-20.435-20.435a20.528 20.528 0 0 0-14.496 6.01c-3.748 3.748-6.01 8.839-6.01 14.496v90.934m81.954-.071v-126.713c0-10.607-8.697-19.304-19.304-19.304-5.94 0-11.385 2.475-15.274 6.364-3.889 3.889-6.364 9.333-6.364 15.273l.176 32.435m-41.117 91.945v58.266c-.071 41.507 26.233 69.084 26.233 69.084v38.184l131.593.071v-38.184c25.527-16.758 43.982-42.143 52.043-71.559l16.688-61.377c1.344-5.162-.142-10.466-3.748-14.072-1.556-1.556-3.535-2.828-5.798-3.535-11.494-3.776-23.499-1.538-32.644 4.943a36.394 36.394 0 0 0-13.884 19.381L68.2 6.381" class="primary" style="display:block" transform="rotate(-45 369.795 -137.271)"/></g><g clip-path="url(#d)" style="display:none"><g style="display:none"><path class="secondary"/><path class="secondary" style="mix-blend-mode:multiply"/><path class="secondary" style="mix-blend-mode:multiply"/><path class="secondary" style="mix-blend-mode:multiply"/><path class="secondary" style="mix-blend-mode:multiply"/><path class="secondary" style="mix-blend-mode:multiply"/></g><path fill="none" class="primary" style="display:none"/><path fill="none" class="primary" style="display:none"/><path fill="none" class="primary" style="display:none"/></g></g></svg>