<?xml version="1.0" encoding="UTF-8"?>
<svg xmlns="http://www.w3.org/2000/svg" xmlns:xlink="http://www.w3.org/1999/xlink" width="550.67pt" height="114.67pt" viewBox="0 0 550.67 114.67" version="1.1">
<defs>
<clipPath id="clip1">
  <path d="M 0 95 L 28 95 L 28 114.671875 L 0 114.671875 Z M 0 95 "/>
</clipPath>
<clipPath id="clip2">
  <path d="M 45 2 L 108 2 L 108 114.671875 L 45 114.671875 Z M 45 2 "/>
</clipPath>
<clipPath id="clip3">
  <path d="M 107 90 L 155 90 L 155 114.671875 L 107 114.671875 Z M 107 90 "/>
</clipPath>
<clipPath id="clip4">
  <path d="M 123 90 L 198 90 L 198 114.671875 L 123 114.671875 Z M 123 90 "/>
</clipPath>
<clipPath id="clip5">
  <path d="M 289 77 L 342 77 L 342 114.671875 L 289 114.671875 Z M 289 77 "/>
</clipPath>
<clipPath id="clip6">
  <path d="M 197 99 L 241 99 L 241 114.671875 L 197 114.671875 Z M 197 99 "/>
</clipPath>
<clipPath id="clip7">
  <path d="M 341 72 L 373 72 L 373 114.671875 L 341 114.671875 Z M 341 72 "/>
</clipPath>
<clipPath id="clip8">
  <path d="M 418 92 L 455 92 L 455 114.671875 L 418 114.671875 Z M 418 92 "/>
</clipPath>
<clipPath id="clip9">
  <path d="M 460 90 L 538 90 L 538 114.671875 L 460 114.671875 Z M 460 90 "/>
</clipPath>
<clipPath id="clip10">
  <path d="M 534 90 L 550.671875 90 L 550.671875 114.671875 L 534 114.671875 Z M 534 90 "/>
</clipPath>
</defs>
<g id="surface1">
<path style=" stroke:none;fill-rule:nonzero;fill:rgb(14.109802%,23.143005%,59.568787%);fill-opacity:1;" d="M 107.164063 27.003906 L 177.5 27.003906 L 177.5 2.835938 L 107.164063 2.835938 Z M 107.164063 27.003906 "/>
<path style=" stroke:none;fill-rule:nonzero;fill:rgb(26.660156%,76.171875%,78.125%);fill-opacity:1;" d="M 27.332031 17.5 L 27.332031 2.835938 L 0 2.835938 L 0 13.730469 C 2.390625 13.367188 4.84375 13.171875 7.34375 13.171875 C 14.511719 13.171875 21.289063 14.726563 27.332031 17.5 "/>
<g clip-path="url(#clip1)" clip-rule="nonzero">
<path style=" stroke:none;fill-rule:nonzero;fill:rgb(26.660156%,76.171875%,78.125%);fill-opacity:1;" d="M 0 99.191406 L 0 114.671875 L 27.332031 114.671875 L 27.332031 95.421875 C 21.292969 98.195313 14.511719 99.753906 7.34375 99.753906 C 4.84375 99.753906 2.390625 99.554688 0 99.191406 "/>
</g>
<path style=" stroke:none;fill-rule:nonzero;fill:rgb(70.896912%,66.992188%,42.358398%);fill-opacity:1;" d="M 45.882813 33.039063 L 27.75 57.253906 L 45.648438 80.21875 C 50.398438 73.398438 53.167969 65.234375 53.167969 56.460938 C 53.167969 47.832031 50.488281 39.792969 45.882813 33.039063 "/>
<path style=" stroke:none;fill-rule:nonzero;fill:rgb(83.59375%,73.242188%,34.521484%);fill-opacity:1;" d="M 27.332031 17.5 C 21.289063 14.726563 14.511719 13.171875 7.34375 13.171875 C 4.84375 13.171875 2.390625 13.367188 0 13.730469 L 0 57.863281 L 27.332031 38.507813 "/>
<path style=" stroke:none;fill-rule:nonzero;fill:rgb(70.896912%,66.992188%,42.358398%);fill-opacity:1;" d="M 0 57.863281 L 0 99.191406 C 2.390625 99.554688 4.84375 99.753906 7.34375 99.753906 C 14.511719 99.753906 21.292969 98.195313 27.332031 95.425781 L 27.332031 38.507813 "/>
<path style=" stroke:none;fill-rule:nonzero;fill:rgb(31.37207%,75.78125%,68.554688%);fill-opacity:1;" d="M 68.5 2.835938 L 59.703125 14.582031 L 82.433594 2.835938 "/>
<g clip-path="url(#clip2)" clip-rule="nonzero">
<path style=" stroke:none;fill-rule:nonzero;fill:rgb(12.156677%,72.851563%,77.734375%);fill-opacity:1;" d="M 61.167969 56.335938 L 101.164063 2.835938 L 82.433594 2.835938 L 59.703125 14.582031 L 45.882813 33.039063 C 50.492188 39.792969 53.167969 47.832031 53.167969 56.460938 C 53.167969 65.234375 50.398438 73.398438 45.648438 80.21875 L 72.5 114.671875 L 107.164063 114.671875 "/>
</g>
<path style=" stroke:none;fill-rule:nonzero;fill:rgb(9.423828%,27.43988%,61.521912%);fill-opacity:1;" d="M 186.164063 70.835938 L 186.164063 63.78125 L 170.808594 70.835938 "/>
<path style=" stroke:none;fill-rule:nonzero;fill:rgb(9.423828%,27.43988%,61.521912%);fill-opacity:1;" d="M 107.164063 46.671875 L 107.164063 70.835938 L 133.597656 70.835938 L 183.566406 46.671875 Z M 107.164063 46.671875 "/>
<path style=" stroke:none;fill-rule:nonzero;fill:rgb(26.268005%,35.301208%,66.209412%);fill-opacity:1;" d="M 183.566406 46.671875 L 133.597656 70.835938 L 170.808594 70.835938 L 186.167969 63.78125 L 186.167969 46.671875 "/>
<g clip-path="url(#clip3)" clip-rule="nonzero">
<path style=" stroke:none;fill-rule:nonzero;fill:rgb(30.589294%,43.530273%,70.117188%);fill-opacity:1;" d="M 123.730469 90.503906 L 107.164063 90.503906 L 107.164063 114.671875 L 128.8125 114.671875 L 154.664063 105.253906 "/>
</g>
<path style=" stroke:none;fill-rule:nonzero;fill:rgb(9.423828%,27.43988%,61.521912%);fill-opacity:1;" d="M 197.414063 92.039063 L 197.414063 90.503906 L 163.308594 90.503906 L 178.484375 98.503906 Z M 197.414063 92.039063 "/>
<g clip-path="url(#clip4)" clip-rule="nonzero">
<path style=" stroke:none;fill-rule:nonzero;fill:rgb(28.24707%,37.646484%,67.771912%);fill-opacity:1;" d="M 197.414063 92.039063 L 178.484375 98.503906 L 163.308594 90.503906 L 123.730469 90.503906 L 154.664063 105.253906 L 128.8125 114.671875 L 197.414063 114.671875 "/>
</g>
<path style=" stroke:none;fill-rule:nonzero;fill:rgb(42.358398%,22.363281%,10.984802%);fill-opacity:1;" d="M 267.914063 0.00390625 L 258.050781 16.050781 L 273.757813 9.054688 "/>
<path style=" stroke:none;fill-rule:nonzero;fill:rgb(0.392151%,0%,0%);fill-opacity:1;" d="M 273.757813 9.054688 L 258.050781 16.050781 L 243.652344 39.464844 L 282.050781 21.902344 Z M 273.757813 9.054688 "/>
<g clip-path="url(#clip5)" clip-rule="nonzero">
<path style=" stroke:none;fill-rule:nonzero;fill:rgb(27.050781%,14.892578%,7.835388%);fill-opacity:1;" d="M 308.664063 114.671875 L 341.914063 114.671875 L 317.925781 77.496094 L 289.535156 85.597656 Z M 308.664063 114.671875 "/>
</g>
<g clip-path="url(#clip6)" clip-rule="nonzero">
<path style=" stroke:none;fill-rule:nonzero;fill:rgb(16.088867%,9.008789%,5.099487%);fill-opacity:1;" d="M 197.414063 114.671875 L 231.164063 114.671875 L 240.039063 99.726563 L 199.492188 111.296875 Z M 197.414063 114.671875 "/>
</g>
<path style=" stroke:none;fill-rule:nonzero;fill:rgb(31.762695%,17.259216%,9.008789%);fill-opacity:1;" d="M 267.914063 52.753906 L 278.066406 68.179688 L 306.484375 59.765625 L 282.050781 21.902344 L 243.65625 39.464844 L 214.414063 87.023438 L 254.644531 75.113281 "/>
<path style=" stroke:none;fill-rule:nonzero;fill:rgb(0.392151%,0%,0%);fill-opacity:1;" d="M 289.535156 85.597656 L 317.929688 77.496094 L 306.484375 59.765625 L 278.070313 68.179688 Z M 289.535156 85.597656 "/>
<path style=" stroke:none;fill-rule:nonzero;fill:rgb(0.392151%,0%,0%);fill-opacity:1;" d="M 214.414063 87.027344 L 199.492188 111.296875 L 240.039063 99.726563 L 254.644531 75.113281 Z M 214.414063 87.027344 "/>
<path style=" stroke:none;fill-rule:nonzero;fill:rgb(15.696716%,51.756287%,47.068787%);fill-opacity:1;" d="M 341.914063 8.167969 L 341.914063 49.828125 L 386.164063 34.503906 "/>
<g clip-path="url(#clip7)" clip-rule="nonzero">
<path style=" stroke:none;fill-rule:nonzero;fill:rgb(23.143005%,16.088867%,48.242188%);fill-opacity:1;" d="M 341.914063 114.671875 L 372.164063 114.671875 L 372.164063 72.789063 L 341.914063 99.3125 Z M 341.914063 114.671875 "/>
</g>
<path style=" stroke:none;fill-rule:nonzero;fill:rgb(23.143005%,16.088867%,48.242188%);fill-opacity:1;" d="M 408.742188 50.898438 L 391.382813 55.941406 L 383.878906 62.523438 L 405.699219 92.835938 L 415.703125 60.667969 "/>
<path style=" stroke:none;fill-rule:nonzero;fill:rgb(22.75238%,31.37207%,64.256287%);fill-opacity:1;" d="M 408.742188 50.898438 L 404.28125 44.632813 L 391.382813 55.941406 "/>
<path style=" stroke:none;fill-rule:nonzero;fill:rgb(15.696716%,51.756287%,47.068787%);fill-opacity:1;" d="M 341.914063 99.3125 L 372.164063 72.789063 L 372.164063 61.527344 L 341.914063 70.320313 Z M 341.914063 99.3125 "/>
<path style=" stroke:none;fill-rule:nonzero;fill:rgb(15.696716%,51.756287%,47.068787%);fill-opacity:1;" d="M 381.257813 58.882813 L 383.878906 62.523438 L 391.382813 55.941406 "/>
<path style=" stroke:none;fill-rule:nonzero;fill:rgb(6.272888%,65.039063%,86.71875%);fill-opacity:1;" d="M 404.28125 44.632813 L 373.917969 2.003906 L 341.917969 2.003906 L 341.917969 8.167969 L 386.167969 34.503906 L 341.917969 49.828125 L 341.917969 70.320313 L 372.167969 61.527344 L 372.167969 46.253906 L 381.261719 58.882813 L 391.382813 55.941406 "/>
<path style=" stroke:none;fill-rule:nonzero;fill:rgb(64.646912%,12.939453%,13.330078%);fill-opacity:1;" d="M 460.414063 27.003906 L 509.410156 27.003906 L 460.414063 10.71875 "/>
<path style=" stroke:none;fill-rule:nonzero;fill:rgb(17.259216%,58.789063%,58.396912%);fill-opacity:1;" d="M 454.414063 2.945313 L 454.414063 2.003906 L 434.203125 2.003906 L 449.59375 7.117188 Z M 454.414063 2.945313 "/>
<path style=" stroke:none;fill-rule:nonzero;fill:rgb(24.31488%,44.700623%,29.417419%);fill-opacity:1;" d="M 434.203125 2.003906 L 424.667969 2.003906 L 424.667969 28.691406 L 449.59375 7.117188 Z M 434.203125 2.003906 "/>
<path style=" stroke:none;fill-rule:nonzero;fill:rgb(17.651367%,15.281677%,54.492188%);fill-opacity:1;" d="M 449.59375 7.117188 L 454.414063 8.722656 L 454.414063 2.945313 "/>
<path style=" stroke:none;fill-rule:nonzero;fill:rgb(22.75238%,31.37207%,64.256287%);fill-opacity:1;" d="M 424.960938 28.4375 L 424.664063 28.691406 L 424.664063 46.28125 L 440.414063 39.503906 Z M 424.960938 28.4375 "/>
<path style=" stroke:none;fill-rule:nonzero;fill:rgb(94.139099%,36.083984%,63.867188%);fill-opacity:1;" d="M 539.414063 46.671875 L 531.425781 46.671875 L 531.914063 53.253906 L 496.746094 70.835938 L 539.414063 70.835938 "/>
<path style=" stroke:none;fill-rule:nonzero;fill:rgb(59.179688%,10.594177%,12.547302%);fill-opacity:1;" d="M 531.425781 46.671875 L 460.414063 46.671875 L 460.414063 70.835938 L 496.746094 70.835938 L 531.914063 53.253906 "/>
<path style=" stroke:none;fill-rule:nonzero;fill:rgb(56.054688%,9.423828%,15.281677%);fill-opacity:1;" d="M 460.414063 2.835938 L 460.414063 10.71875 L 509.410156 27.003906 L 529.964844 27.003906 L 528.164063 2.835938 "/>
<path style=" stroke:none;fill-rule:nonzero;fill:rgb(94.139099%,36.083984%,63.867188%);fill-opacity:1;" d="M 530.75 2.835938 L 528.164063 2.835938 L 529.964844 27.003906 L 530.75 27.003906 Z M 530.75 2.835938 "/>
<g clip-path="url(#clip8)" clip-rule="nonzero">
<path style=" stroke:none;fill-rule:nonzero;fill:rgb(22.75238%,31.37207%,64.256287%);fill-opacity:1;" d="M 421.414063 114.671875 L 454.414063 114.671875 L 454.414063 92.003906 L 418.152344 110.136719 Z M 421.414063 114.671875 "/>
</g>
<path style=" stroke:none;fill-rule:nonzero;fill:rgb(30.979919%,11.767578%,32.93457%);fill-opacity:1;" d="M 449.59375 7.117188 L 424.960938 28.4375 L 440.414063 39.503906 L 424.664063 46.28125 L 424.664063 73.253906 L 415.703125 60.671875 L 405.699219 92.835938 L 418.152344 110.136719 L 454.414063 92.003906 L 454.414063 8.722656 "/>
<g clip-path="url(#clip9)" clip-rule="nonzero">
<path style=" stroke:none;fill-rule:nonzero;fill:rgb(94.139099%,33.714294%,61.521912%);fill-opacity:1;" d="M 460.414063 90.503906 L 460.414063 114.671875 L 537.136719 114.671875 L 534.9375 90.503906 Z M 460.414063 90.503906 "/>
</g>
<g clip-path="url(#clip10)" clip-rule="nonzero">
<path style=" stroke:none;fill-rule:nonzero;fill:rgb(94.139099%,36.083984%,63.867188%);fill-opacity:1;" d="M 550.664063 90.503906 L 534.9375 90.503906 L 537.136719 114.671875 L 550.664063 114.671875 Z M 550.664063 90.503906 "/>
</g>
</g>
</svg>
